<svg xmlns="http://www.w3.org/2000/svg" viewBox="0 0 142.52 142.52"><defs><style>.cls-1,.cls-2{fill:#fdb515;}.cls-1{stroke:#fff;}.cls-1,.cls-3{stroke-miterlimit:10;}.cls-2,.cls-3{fill-rule:evenodd;}.cls-3{fill:#fff;stroke:#fdb515;stroke-width:0.5px;}</style></defs><title>Asset 37</title><g id="Layer_2" data-name="Layer 2"><g id="Layer_2-2" data-name="Layer 2"><circle class="cls-1" cx="71.26" cy="71.26" r="70.76"/><path class="cls-2" d="M45.3,50.83c1.59-5.6,8.6-7.54,12.53-3.94a7.55,7.55,0,0,1,13.85.72c4.91-6,16-2,13.39,8.59-.42,1.7-1,11.91-.16,14.08,3.88-8.75,19.46-8.52,25.78-4.12,6.74,4.7,2.93,10.66-.21,11.85-3.66,1.39-8.08-1.19-11.52.31-4.54,2-7.7,6.07-10.07,10.27-5.64,10-15.42,12.64-26.29,10.61-5.23.73-10.56,0-14.91-3.16-7.53-5.21-10.07-16.33-7.79-28.51-.16-.93-5.26-7.76-2.09-13.31A6.72,6.72,0,0,1,45.3,50.83Z"/><path class="cls-3" d="M81.49,73.78c-5.65-2.22-16.42-2.26-20.56,7.39,5.85-9.06,14.75-8.18,20.56-7.39ZM49.12,75c1.23-1.09,8.32-2.68,13.17,2.37-2.82-2.08-9.1-4-13.17-2.37Zm8.21-26.78c-3.66-4.07-11.92-1.21-11,6.17.66,5.31,2.39,17.28,8.57,16.51,2.38-.3,3.57-2.06,4.13-4.46-1.88-4.83-2-11.59-2.13-15a10.52,10.52,0,0,1,.42-3.24ZM70.76,49a10,10,0,0,0-1.05,3.17c-.46,3-1.15,9.62,0,14.47-.79,2.47-2.17,4.15-4.58,4-6.27-.32-6.81-13.44-6.95-19.23C58,42.4,68.77,41.58,70.76,49Zm13,6.89C86.52,44.79,72.53,42.5,71,52.38c-.75,4.86-1.71,17.79,3.62,18.55s8.16-10.9,9.18-15ZM45,52.11C41,51,36.46,55.26,38.6,61.4,40.19,66,43.93,74,48.81,71.79a4.22,4.22,0,0,0,1.6-1.2c-3.67-3.5-5.83-14.78-5.38-18.48Zm38.25,10.5c-.21,4.09-.59,8.75,2,10.11,1.17-2.46,1.83-7.42,13-8.15,10.46-.69,15.68,5.06,14.79,8.2-2.27,8.06-9.25,2-14.64,4.35-4.56,2-8,6-10.69,10.83C83.66,95.24,76,100.46,62.63,97.88c-15.29,2.26-24.09-9.3-21.67-28a5.83,5.83,0,0,0-.39-1.23c2.14,3.35,5.1,6,8.77,4.34a5.54,5.54,0,0,0,2.12-1.58c2.92,1.83,6.9.73,8.4-3.2,2.64,4.8,8.11,5.24,10.5.34C72.59,74,79.16,74.84,83.28,62.61Z"/></g></g></svg>