<svg xmlns="http://www.w3.org/2000/svg" viewBox="0 0 141.52 141.52"><defs><style>.cls-1,.cls-2{fill:#669b41;}.cls-2,.cls-3{fill-rule:evenodd;}.cls-3{fill:#fff;stroke:#669b41;stroke-miterlimit:10;stroke-width:0.5px;}</style></defs><title>Asset 35</title><g id="Layer_2" data-name="Layer 2"><g id="Layer_2-2" data-name="Layer 2"><circle class="cls-1" cx="70.76" cy="70.76" r="70.76"/><path class="cls-2" d="M20.42,98.07c-5.6-1.6-7.54-8.6-3.94-12.54a7.54,7.54,0,0,1,.72-13.84c-6-4.91-2-16,8.59-13.39,1.7.42,11.91,1,14.08.16C31.12,54.58,31.35,39,35.75,32.68c4.7-6.75,10.66-2.93,11.85.2C49,36.54,46.41,41,47.91,44.4c2,4.54,6.07,7.71,10.27,10.07,10,5.65,12.64,15.43,10.61,26.3.73,5.22,0,10.56-3.16,14.9-5.21,7.53-16.33,10.08-28.51,7.8-.93.15-7.76,5.25-13.31,2.08A6.7,6.7,0,0,1,20.42,98.07Z"/><path class="cls-3" d="M43.37,61.87c-2.22,5.65-2.26,16.43,7.39,20.57-9.06-5.86-8.18-14.75-7.39-20.57ZM44.6,94.25C43.51,93,41.92,85.92,47,81.07c-2.08,2.82-4,9.1-2.37,13.18ZM17.82,86C13.75,89.7,16.61,98,24,97c5.31-.67,17.28-2.4,16.51-8.58-.3-2.37-2.06-3.57-4.46-4.12-4.83,1.87-11.59,2-15,2.13A10.84,10.84,0,0,1,17.82,86Zm.77-13.44a9.8,9.8,0,0,0,3.17,1.06c3,.45,9.62,1.14,14.47,0,2.47.8,4.15,2.17,4,4.59C39.94,84.47,26.82,85,21,85.15c-9,.21-9.86-10.56-2.44-12.55Zm6.89-13C14.38,56.84,12.09,70.83,22,72.36c4.85.76,17.79,1.72,18.55-3.61s-10.9-8.17-15-9.18ZM21.7,98.34c-1.14,4,3.15,8.56,9.29,6.42,4.58-1.59,12.56-5.33,10.39-10.21A4.18,4.18,0,0,0,40.18,93c-3.5,3.67-14.78,5.83-18.48,5.38ZM32.2,60.08c4.09.21,8.75.59,10.1-2-2.45-1.17-7.41-1.83-8.14-13-.69-10.47,5.06-15.69,8.2-14.8,8.06,2.28,2,9.25,4.35,14.65,2,4.56,6,7.94,10.83,10.68,7.29,4.1,12.51,11.72,9.93,25.13,2.26,15.29-9.3,24.09-28,21.67a4.78,4.78,0,0,0-1.23.39c3.35-2.14,6-5.11,4.34-8.78A5.58,5.58,0,0,0,41,91.91c1.83-2.92.73-6.9-3.2-8.4,4.8-2.64,5.24-8.12.34-10.5C43.57,70.77,44.43,64.2,32.2,60.08Z"/><path class="cls-2" d="M80.24,98.07c-5.6-1.6-7.54-8.6-3.94-12.54A7.54,7.54,0,0,1,77,71.69c-6-4.91-2-16,8.59-13.39,1.7.42,11.91,1,14.08.16C90.94,54.58,91.17,39,95.57,32.68c4.7-6.75,10.66-2.93,11.85.2,1.39,3.66-1.19,8.08.31,11.52,2,4.54,6.07,7.71,10.27,10.07,10,5.65,12.64,15.43,10.61,26.3.73,5.22,0,10.56-3.16,14.9-5.21,7.53-16.33,10.08-28.51,7.8-.93.15-7.76,5.25-13.31,2.08A6.7,6.7,0,0,1,80.24,98.07Z"/><path class="cls-3" d="M103.19,61.87c-2.22,5.65-2.25,16.43,7.39,20.57-9.06-5.86-8.17-14.75-7.39-20.57Zm1.23,32.38c-1.09-1.23-2.68-8.33,2.37-13.18-2.08,2.82-4,9.1-2.37,13.18ZM77.64,86C73.57,89.7,76.43,98,83.81,97c5.31-.67,17.28-2.4,16.51-8.58-.3-2.37-2.06-3.57-4.46-4.12-4.83,1.87-11.59,2-15,2.13A10.84,10.84,0,0,1,77.64,86Zm.77-13.44a9.78,9.78,0,0,0,3.18,1.06c3,.45,9.61,1.14,14.46,0,2.48.8,4.15,2.17,4,4.59-.32,6.26-13.44,6.8-19.23,6.94-9,.21-9.86-10.56-2.44-12.55Zm6.89-13c-11.1-2.73-13.39,11.26-3.51,12.79,4.86.76,17.79,1.72,18.55-3.61s-10.9-8.17-15-9.18ZM81.52,98.34c-1.14,4,3.16,8.56,9.29,6.42,4.58-1.59,12.57-5.33,10.39-10.21A4.18,4.18,0,0,0,100,93c-3.5,3.67-14.78,5.83-18.48,5.38ZM92,60.08c4.08.21,8.74.59,10.1-2-2.46-1.17-7.42-1.83-8.15-13-.69-10.47,5.06-15.69,8.2-14.8,8.06,2.28,2,9.25,4.35,14.65,2,4.56,6,7.94,10.83,10.68,7.29,4.1,12.51,11.72,9.93,25.13,2.26,15.29-9.3,24.09-28,21.67a4.78,4.78,0,0,0-1.23.39c3.35-2.14,6-5.11,4.34-8.78a5.58,5.58,0,0,0-1.58-2.11c1.83-2.92.74-6.9-3.2-8.4,4.8-2.64,5.24-8.12.34-10.5C103.39,70.77,104.25,64.2,92,60.08Z"/></g></g></svg>