<svg xmlns="http://www.w3.org/2000/svg" viewBox="0 0 141.52 141.52"><defs><style>.cls-1,.cls-2{fill:#669b41;}.cls-2,.cls-3{fill-rule:evenodd;}.cls-3{fill:#fff;stroke:#669b41;stroke-miterlimit:10;stroke-width:0.5px;}</style></defs><title>Asset 36</title><g id="Layer_2" data-name="Layer 2"><g id="Layer_2-2" data-name="Layer 2"><circle class="cls-1" cx="70.76" cy="70.76" r="70.76"/><path class="cls-2" d="M50.33,96.73c-5.6-1.6-7.54-8.61-3.94-12.54a7.55,7.55,0,0,1,.72-13.85c-6-4.91-2-16,8.59-13.39,1.7.42,11.91,1,14.08.17C61,53.23,61.26,37.65,65.66,31.33c4.7-6.74,10.66-2.92,11.85.21,1.39,3.66-1.19,8.08.31,11.52,2,4.54,6.07,7.7,10.27,10.07,10,5.64,12.64,15.43,10.61,26.3.73,5.22,0,10.55-3.16,14.9-5.21,7.53-16.33,10.07-28.51,7.8-.93.15-7.76,5.25-13.31,2.08A6.71,6.71,0,0,1,50.33,96.73Z"/><path class="cls-3" d="M73.28,60.53C71.06,66.18,71,77,80.67,81.1c-9.06-5.86-8.18-14.75-7.39-20.57ZM74.51,92.9c-1.09-1.22-2.68-8.32,2.37-13.17-2.08,2.82-4,9.1-2.37,13.17ZM47.73,84.69c-4.07,3.66-1.21,11.92,6.17,11,5.31-.66,17.28-2.39,16.51-8.57-.3-2.37-2.06-3.57-4.46-4.13-4.83,1.88-11.59,2-15,2.13a10.23,10.23,0,0,1-3.24-.42Zm.77-13.43a9.79,9.79,0,0,0,3.17,1c3,.46,9.62,1.15,14.47,0,2.47.79,4.15,2.17,4,4.58-.32,6.27-13.44,6.81-19.23,7-9,.21-9.86-10.56-2.44-12.55Zm6.89-13C44.29,55.5,42,69.49,51.88,71c4.86.76,17.79,1.72,18.55-3.62s-10.9-8.16-15-9.18ZM51.61,97c-1.14,4,3.15,8.56,9.29,6.42,4.58-1.59,12.56-5.33,10.39-10.21a4.22,4.22,0,0,0-1.2-1.6c-3.5,3.67-14.78,5.83-18.48,5.39Zm10.5-38.26c4.09.21,8.75.59,10.11-2-2.46-1.17-7.42-1.83-8.15-13-.69-10.46,5.06-15.68,8.2-14.79,8.06,2.28,2,9.25,4.35,14.64,2,4.57,6,8,10.83,10.69C94.74,58.36,100,66,97.38,79.4c2.26,15.28-9.3,24.08-28,21.67a5,5,0,0,0-1.23.38c3.35-2.13,6-5.1,4.34-8.77a5.54,5.54,0,0,0-1.58-2.12c1.83-2.92.73-6.9-3.2-8.39,4.8-2.65,5.24-8.12.34-10.5C73.48,69.43,74.34,62.86,62.11,58.74Z"/></g></g></svg>