<svg xmlns="http://www.w3.org/2000/svg" viewBox="0 0 141.52 141.52"><defs><style>.cls-1,.cls-2{fill:#f04937;}.cls-2,.cls-3{fill-rule:evenodd;}.cls-3{fill:#fff;stroke:#f04937;stroke-miterlimit:10;stroke-width:0.5px;}</style></defs><title>Asset 34</title><g id="Layer_2" data-name="Layer 2"><g id="Layer_2-2" data-name="Layer 2"><circle class="cls-1" cx="70.76" cy="70.76" r="70.76"/><path class="cls-2" d="M91.19,42.11c5.6,1.59,7.54,8.6,4,12.54a7.54,7.54,0,0,1-.73,13.84c6,4.91,2,16-8.58,13.39-1.71-.42-11.91-.95-14.09-.16,8.75,3.88,8.52,19.47,4.12,25.78-4.7,6.75-10.66,2.93-11.85-.2-1.39-3.66,1.19-8.08-.31-11.52-2-4.54-6.06-7.71-10.27-10.07-10-5.65-12.64-15.43-10.61-26.3-.73-5.22,0-10.56,3.17-14.9,5.2-7.53,16.32-10.08,28.51-7.8.93-.16,7.76-5.25,13.31-2.08A6.71,6.71,0,0,1,91.19,42.11Z"/><path class="cls-3" d="M68.24,78.31c2.22-5.65,2.26-16.43-7.39-20.57,9.06,5.85,8.18,14.75,7.39,20.57ZM67,45.93c1.09,1.23,2.68,8.33-2.37,13.18,2.07-2.82,4-9.1,2.37-13.18Zm26.77,8.21c4.07-3.66,1.21-11.91-6.17-11-5.3.66-17.28,2.4-16.51,8.58.3,2.37,2.07,3.57,4.46,4.12,4.83-1.87,11.59-2.05,15-2.13a10.52,10.52,0,0,1,3.24.42ZM93,67.57a10.18,10.18,0,0,0-3.18-1c-2.95-.45-9.62-1.14-14.47,0-2.47-.8-4.15-2.17-4-4.59.32-6.26,13.44-6.8,19.23-6.94,9-.21,9.87,10.56,2.45,12.54Zm-6.89,13c11.09,2.73,13.38-11.26,3.51-12.8-4.86-.75-17.8-1.71-18.56,3.62s10.9,8.17,15,9.18Zm3.77-38.77c1.14-4-3.15-8.56-9.29-6.42C76.05,37,68.06,40.75,70.23,45.63a4.18,4.18,0,0,0,1.2,1.59c3.5-3.67,14.78-5.83,18.48-5.38ZM79.41,80.1c-4.08-.21-8.75-.59-10.1,2,2.45,1.17,7.41,1.83,8.14,13,.69,10.47-5,15.69-8.2,14.8-8-2.28-2-9.25-4.35-14.65-2-4.56-6-7.94-10.83-10.68-7.29-4.1-12.51-11.72-9.92-25.13-2.27-15.29,9.29-24.09,28-21.67a4.88,4.88,0,0,0,1.22-.39c-3.34,2.14-6,5.11-4.34,8.78a5.69,5.69,0,0,0,1.58,2.11c-1.83,2.92-.73,6.9,3.2,8.4-4.8,2.64-5.24,8.12-.34,10.5C68.05,69.41,67.18,76,79.41,80.1Z"/></g></g></svg>