<svg xmlns="http://www.w3.org/2000/svg" viewBox="0 0 142.52 142.52"><defs><style>.cls-1,.cls-2{fill:#f04937;}.cls-1{stroke:#fff;}.cls-1,.cls-3{stroke-miterlimit:10;}.cls-2,.cls-3{fill-rule:evenodd;}.cls-3{fill:#fff;stroke:#f04937;stroke-width:0.5px;}</style></defs><title>Asset 33</title><g id="Layer_2" data-name="Layer 2"><g id="Layer_2-2" data-name="Layer 2"><circle class="cls-1" cx="71.26" cy="71.26" r="70.76"/><path class="cls-2" d="M122.6,44c5.6,1.6,7.54,8.61,4,12.54a7.55,7.55,0,0,1-.73,13.85c6,4.9,2,16-8.58,13.39-1.71-.42-11.91-1-14.09-.17,8.75,3.89,8.52,19.47,4.12,25.79-4.69,6.74-10.66,2.92-11.85-.21-1.39-3.66,1.19-8.08-.31-11.52-2-4.54-6.06-7.71-10.27-10.07-10-5.65-12.64-15.43-10.61-26.3-.73-5.22,0-10.55,3.17-14.9,5.2-7.53,16.32-10.07,28.51-7.8.93-.15,7.76-5.25,13.31-2.08A6.71,6.71,0,0,1,122.6,44Z"/><path class="cls-3" d="M99.65,80.15c2.22-5.65,2.26-16.43-7.39-20.57,9.06,5.86,8.18,14.75,7.39,20.57ZM98.43,47.77C99.52,49,101.11,56.1,96.06,61c2.07-2.82,4-9.1,2.37-13.18ZM125.2,56c4.07-3.66,1.21-11.92-6.17-11-5.3.66-17.28,2.39-16.51,8.57.3,2.37,2.07,3.57,4.46,4.13,4.83-1.88,11.59-2.06,15-2.13a10.23,10.23,0,0,1,3.24.42Zm-.76,13.43a9.69,9.69,0,0,0-3.18-1c-3-.46-9.62-1.15-14.47,0-2.47-.8-4.15-2.17-4-4.58.32-6.27,13.44-6.81,19.23-7,9-.21,9.87,10.56,2.45,12.55Zm-6.89,13c11.09,2.72,13.38-11.27,3.51-12.8-4.86-.76-17.8-1.72-18.56,3.62s10.9,8.16,15,9.18Zm3.77-38.78c1.14-4-3.15-8.56-9.29-6.42-4.57,1.59-12.56,5.33-10.39,10.21a4.22,4.22,0,0,0,1.2,1.6c3.5-3.68,14.78-5.84,18.48-5.39Zm-10.5,38.26c-4.08-.21-8.75-.59-10.1,2,2.45,1.17,7.41,1.83,8.14,13,.69,10.46-5,15.68-8.2,14.79-8-2.28-2-9.25-4.35-14.64-2-4.57-6-7.95-10.83-10.69C78.19,82.31,73,74.7,75.56,61.28c-2.27-15.29,9.29-24.09,28-21.67a5,5,0,0,0,1.22-.38c-3.34,2.13-6,5.1-4.34,8.77A5.53,5.53,0,0,0,102,50.11c-1.83,2.92-.73,6.91,3.2,8.4-4.8,2.65-5.24,8.12-.34,10.5C99.46,71.25,98.6,77.82,110.82,81.94Z"/><path class="cls-2" d="M62.78,44c5.6,1.6,7.54,8.61,4,12.54A7.55,7.55,0,0,1,66,70.34c6,4.9,2,16-8.59,13.39-1.7-.42-11.9-1-14.08-.17,8.75,3.89,8.52,19.47,4.12,25.79-4.7,6.74-10.66,2.92-11.85-.21-1.39-3.66,1.19-8.08-.31-11.52-2-4.54-6.07-7.71-10.27-10.07C15,81.9,12.38,72.12,14.41,61.25c-.73-5.22,0-10.55,3.17-14.9,5.2-7.53,16.32-10.07,28.51-7.8.92-.15,7.76-5.25,13.31-2.08A6.71,6.71,0,0,1,62.78,44Z"/><path class="cls-3" d="M39.83,80.15c2.22-5.65,2.26-16.43-7.39-20.57,9.06,5.86,8.18,14.75,7.39,20.57ZM38.61,47.77C39.7,49,41.29,56.1,36.23,61c2.08-2.82,4-9.1,2.38-13.18ZM65.38,56c4.07-3.66,1.21-11.92-6.17-11-5.3.66-17.28,2.39-16.51,8.57.3,2.37,2.06,3.57,4.46,4.13,4.83-1.88,11.59-2.06,15-2.13a10.23,10.23,0,0,1,3.24.42Zm-.76,13.43a9.69,9.69,0,0,0-3.18-1c-2.95-.46-9.62-1.15-14.47,0-2.47-.8-4.15-2.17-4-4.58.32-6.27,13.44-6.81,19.23-7,9-.21,9.86,10.56,2.45,12.55Zm-6.89,13c11.09,2.72,13.38-11.27,3.51-12.8-4.86-.76-17.8-1.72-18.56,3.62s10.9,8.16,15,9.18ZM61.5,43.68c1.14-4-3.15-8.56-9.29-6.42-4.57,1.59-12.56,5.33-10.39,10.21a4.22,4.22,0,0,0,1.2,1.6c3.5-3.68,14.78-5.84,18.48-5.39ZM51,81.94c-4.08-.21-8.75-.59-10.1,2,2.45,1.17,7.41,1.83,8.14,13,.69,10.46-5,15.68-8.2,14.79-8.05-2.28-2-9.25-4.35-14.64-2-4.57-6-7.95-10.83-10.69-7.29-4.1-12.51-11.71-9.93-25.13C13.47,46,25,37.19,43.73,39.61A5,5,0,0,0,45,39.23c-3.34,2.13-6,5.1-4.34,8.77a5.53,5.53,0,0,0,1.58,2.11c-1.83,2.92-.73,6.91,3.2,8.4-4.8,2.65-5.24,8.12-.34,10.5C39.64,71.25,38.77,77.82,51,81.94Z"/></g></g></svg>